<svg width="102" height="27" viewBox="0 0 102 27" fill="none" xmlns="http://www.w3.org/2000/svg">
<path d="M6.50033 13.6751L13.0003 7.17513L19.5003 13.6751L13.0003 20.1751L6.50033 13.6751Z" fill="#22c55e"/>
<path d="M23.8337 9.3418L19.5003 13.6751V7.17513H13.0003L17.3337 2.8418H23.8337V9.3418Z" fill="#22c55e"/>
<path d="M23.8337 18.0085L19.5003 13.6751V20.1751H13.0003L17.3337 24.5085H23.8337V18.0085Z" fill="#22c55e"/>
<path d="M2.16699 18.0085L6.50033 13.6751V20.1751H13.0003L8.66699 24.5085H2.16699L2.16699 18.0085Z" fill="#22c55e"/>
<path d="M2.16699 9.3418L6.50033 13.6751V7.17513H13.0003L8.66699 2.8418H2.16699L2.16699 9.3418Z" fill="#22c55e"/>
<path d="M38.5803 8.04175L34.586 15.0948V19.7411H32.7034V15.0948L28.709 8.04175H30.8535L33.6528 13.2229L36.4358 8.04175H38.5803Z" fill="white"/>
<path d="M41.9309 19.9584C40.7304 19.9584 39.71 19.535 38.8696 18.6882C38.0293 17.8414 37.6091 16.7996 37.6091 15.5628C37.6091 14.326 38.0293 13.2842 38.8696 12.4374C39.71 11.5906 40.7304 11.1672 41.9309 11.1672C43.1423 11.1672 44.1627 11.5906 44.9921 12.4374C45.8325 13.2842 46.2527 14.326 46.2527 15.5628C46.2527 16.7996 45.8325 17.8414 44.9921 18.6882C44.1627 19.535 43.1423 19.9584 41.9309 19.9584ZM40.1138 17.4514C40.6049 17.9528 41.2106 18.2035 41.9309 18.2035C42.6512 18.2035 43.2569 17.9528 43.748 17.4514C44.2391 16.95 44.4847 16.3205 44.4847 15.5628C44.4847 14.8051 44.2391 14.1756 43.748 13.6742C43.2569 13.1728 42.6512 12.9221 41.9309 12.9221C41.2106 12.9221 40.6049 13.1728 40.1138 13.6742C39.6227 14.1756 39.3771 14.8051 39.3771 15.5628C39.3771 16.3205 39.6227 16.95 40.1138 17.4514Z" fill="white"/>
<path d="M53.3682 11.3844H55.1362V19.7411H53.3682V18.6715C52.8334 19.5294 51.9876 19.9584 50.8307 19.9584C49.8922 19.9584 49.1337 19.652 48.5553 19.0392C47.9768 18.4264 47.6876 17.5851 47.6876 16.5155V11.3844H49.4556V16.3316C49.4556 16.9556 49.6193 17.4347 49.9467 17.769C50.2742 18.1032 50.7216 18.2704 51.2891 18.2704C51.9112 18.2704 52.4132 18.0754 52.7952 17.6854C53.1772 17.2843 53.3682 16.677 53.3682 15.8636V11.3844Z" fill="white"/>
<path d="M58.9716 12.7884C59.419 11.7521 60.2594 11.234 61.4926 11.234V13.1895C60.8159 13.1449 60.2266 13.312 59.7246 13.6909C59.2226 14.0586 58.9716 14.6714 58.9716 15.5294V19.7411H57.2036V11.3844H58.9716V12.7884Z" fill="white"/>
<path d="M69.6581 13.6742C70.1601 13.9416 70.553 14.3093 70.8368 14.7773C71.1205 15.2452 71.2624 15.7856 71.2624 16.3985C71.2624 17.3567 70.9295 18.1534 70.2638 18.7885C69.5981 19.4236 68.785 19.7411 67.8246 19.7411H62.9135V8.04175H67.4645C68.403 8.04175 69.1943 8.35373 69.8382 8.9777C70.493 9.59052 70.8204 10.3593 70.8204 11.2842C70.8204 12.2981 70.433 13.0948 69.6581 13.6742ZM67.4645 9.8468H64.7961V12.9221H67.4645C67.8792 12.9221 68.2284 12.7772 68.5122 12.4875C68.7959 12.1867 68.9378 11.819 68.9378 11.3844C68.9378 10.9499 68.7959 10.5878 68.5122 10.2981C68.2284 9.99722 67.8792 9.8468 67.4645 9.8468ZM67.8246 17.9361C68.2612 17.9361 68.6268 17.7801 68.9214 17.4681C69.227 17.145 69.3798 16.755 69.3798 16.2982C69.3798 15.8413 69.227 15.4569 68.9214 15.145C68.6268 14.8218 68.2612 14.6603 67.8246 14.6603H64.7961V17.9361H67.8246Z" fill="white"/>
<path d="M79.3532 11.3844H81.1212V19.7411H79.3532V18.5378C78.6875 19.4849 77.7325 19.9584 76.4884 19.9584C75.3643 19.9584 74.4039 19.535 73.6072 18.6882C72.8105 17.8302 72.4122 16.7884 72.4122 15.5628C72.4122 14.326 72.8105 13.2842 73.6072 12.4374C74.4039 11.5906 75.3643 11.1672 76.4884 11.1672C77.7325 11.1672 78.6875 11.6351 79.3532 12.5711V11.3844ZM74.9168 17.4848C75.4079 17.9862 76.0245 18.2369 76.7667 18.2369C77.5088 18.2369 78.1254 17.9862 78.6165 17.4848C79.1076 16.9723 79.3532 16.3316 79.3532 15.5628C79.3532 14.794 79.1076 14.1589 78.6165 13.6575C78.1254 13.1449 77.5088 12.8886 76.7667 12.8886C76.0245 12.8886 75.4079 13.1449 74.9168 13.6575C74.4257 14.1589 74.1801 14.794 74.1801 15.5628C74.1801 16.3316 74.4257 16.9723 74.9168 17.4848Z" fill="white"/>
<path d="M87.4874 11.1672C88.4259 11.1672 89.1844 11.4736 89.7628 12.0864C90.3413 12.6992 90.6305 13.5405 90.6305 14.6101V19.7411H88.8625V14.794C88.8625 14.17 88.6988 13.6909 88.3714 13.3566C88.0439 13.0223 87.5965 12.8552 87.029 12.8552C86.4069 12.8552 85.9049 13.0558 85.5229 13.4569C85.1409 13.8469 84.9499 14.4486 84.9499 15.2619V19.7411H83.1819V11.3844H84.9499V12.4541C85.4847 11.5961 86.3305 11.1672 87.4874 11.1672Z" fill="white"/>
<path d="M101.292 19.7411H99.0496L94.5313 14.1756V19.7411H92.6488V8.04175H94.5313V13.2898L98.8859 8.04175H101.129L96.4958 13.741L101.292 19.7411Z" fill="white"/>
</svg>
