<svg width="117" height="31" viewBox="0 0 117 31" fill="none" xmlns="http://www.w3.org/2000/svg">
<path d="M7.5 15.125L15 7.625L22.5 15.125L15 22.625L7.5 15.125Z" fill="#22c55e"/>
<path d="M27.5 10.125L22.5 15.125V7.625H15L20 2.625H27.5V10.125Z" fill="#22c55e"/>
<path d="M27.5 20.125L22.5 15.125V22.625H15L20 27.625H27.5V20.125Z" fill="#22c55e"/>
<path d="M2.5 20.125L7.5 15.125V22.625H15L10 27.625H2.5L2.5 20.125Z" fill="#22c55e"/>
<path d="M2.5 10.125L7.5 15.125V7.625H15L10 2.625H2.5L2.5 10.125Z" fill="#22c55e"/>
<path d="M44.515 8.625L39.9061 16.7631V22.1243H37.7339V16.7631L33.125 8.625H35.5994L38.8294 14.6033L42.0406 8.625H44.515Z" fill="white"/>
<path d="M48.381 22.375C46.9958 22.375 45.8184 21.8865 44.8488 20.9094C43.8792 19.9323 43.3944 18.7302 43.3944 17.3031C43.3944 15.8761 43.8792 14.674 44.8488 13.6969C45.8184 12.7198 46.9958 12.2312 48.381 12.2312C49.7788 12.2312 50.9562 12.7198 51.9133 13.6969C52.8829 14.674 53.3677 15.8761 53.3677 17.3031C53.3677 18.7302 52.8829 19.9323 51.9133 20.9094C50.9562 21.8865 49.7788 22.375 48.381 22.375ZM46.2844 19.4823C46.851 20.0608 47.5499 20.3501 48.381 20.3501C49.2121 20.3501 49.911 20.0608 50.4777 19.4823C51.0444 18.9038 51.3277 18.1774 51.3277 17.3031C51.3277 16.4289 51.0444 15.7025 50.4777 15.1239C49.911 14.5454 49.2121 14.2561 48.381 14.2561C47.5499 14.2561 46.851 14.5454 46.2844 15.1239C45.7177 15.7025 45.4344 16.4289 45.4344 17.3031C45.4344 18.1774 45.7177 18.9038 46.2844 19.4823Z" fill="white"/>
<path d="M61.5779 12.4819H63.6179V22.1243H61.5779V20.8901C60.9608 21.88 59.9849 22.375 58.6501 22.375C57.5671 22.375 56.692 22.0214 56.0245 21.3143C55.3571 20.6072 55.0234 19.6366 55.0234 18.4024V12.4819H57.0634V18.1902C57.0634 18.9102 57.2523 19.463 57.6301 19.8487C58.0079 20.2344 58.5242 20.4272 59.179 20.4272C59.8968 20.4272 60.476 20.2023 60.9168 19.7523C61.3575 19.2894 61.5779 18.5888 61.5779 17.6502V12.4819Z" fill="white"/>
<path d="M68.0433 14.1019C68.5596 12.9062 69.5293 12.3084 70.9522 12.3084V14.5647C70.1715 14.5133 69.4915 14.7061 68.9122 15.1432C68.333 15.5675 68.0433 16.2746 68.0433 17.2646V22.1243H66.0033V12.4819H68.0433V14.1019Z" fill="white"/>
<path d="M80.374 15.1239C80.9532 15.4325 81.4066 15.8568 81.734 16.3967C82.0614 16.9367 82.2251 17.5603 82.2251 18.2674C82.2251 19.373 81.841 20.2923 81.0729 21.0251C80.3047 21.7579 79.3666 22.1243 78.2584 22.1243H72.5917V8.625H77.8428C78.9258 8.625 79.8388 8.98498 80.5817 9.70494C81.3373 10.4121 81.7151 11.2991 81.7151 12.3662C81.7151 13.5362 81.268 14.4554 80.374 15.1239ZM77.8428 10.7077H74.764V14.2561H77.8428C78.3214 14.2561 78.7243 14.089 79.0517 13.7547C79.3791 13.4076 79.5429 12.9833 79.5429 12.4819C79.5429 11.9805 79.3791 11.5627 79.0517 11.2284C78.7243 10.8813 78.3214 10.7077 77.8428 10.7077ZM78.2584 20.0416C78.7621 20.0416 79.184 19.8616 79.524 19.5016C79.8766 19.1287 80.0529 18.6788 80.0529 18.1516C80.0529 17.6245 79.8766 17.181 79.524 16.821C79.184 16.4482 78.7621 16.2617 78.2584 16.2617H74.764V20.0416H78.2584Z" fill="white"/>
<path d="M91.5606 12.4819H93.6006V22.1243H91.5606V20.7358C90.7925 21.8286 89.6906 22.375 88.2551 22.375C86.958 22.375 85.8499 21.8865 84.9306 20.9094C84.0114 19.9194 83.5517 18.7173 83.5517 17.3031C83.5517 15.8761 84.0114 14.674 84.9306 13.6969C85.8499 12.7198 86.958 12.2312 88.2551 12.2312C89.6906 12.2312 90.7925 12.7712 91.5606 13.8512V12.4819ZM86.4417 19.5209C87.0084 20.0994 87.7199 20.3887 88.5762 20.3887C89.4325 20.3887 90.144 20.0994 90.7106 19.5209C91.2773 18.9295 91.5606 18.1902 91.5606 17.3031C91.5606 16.416 91.2773 15.6832 90.7106 15.1047C90.144 14.5133 89.4325 14.2176 88.5762 14.2176C87.7199 14.2176 87.0084 14.5133 86.4417 15.1047C85.8751 15.6832 85.5917 16.416 85.5917 17.3031C85.5917 18.1902 85.8751 18.9295 86.4417 19.5209Z" fill="white"/>
<path d="M100.946 12.2312C102.029 12.2312 102.904 12.5848 103.572 13.2919C104.239 13.999 104.573 14.9697 104.573 16.2039V22.1243H102.533V16.416C102.533 15.6961 102.344 15.1432 101.966 14.7575C101.588 14.3718 101.072 14.179 100.417 14.179C99.6995 14.179 99.1203 14.4104 98.6795 14.8732C98.2388 15.3232 98.0184 16.0175 98.0184 16.956V22.1243H95.9784V12.4819H98.0184V13.7162C98.6355 12.7262 99.6114 12.2312 100.946 12.2312Z" fill="white"/>
<path d="M116.875 22.1243H114.287L109.074 15.7025V22.1243H106.902V8.625H109.074V14.6804L114.098 8.625H116.686L111.341 15.2011L116.875 22.1243Z" fill="white"/>
</svg>
